<svg xmlns="http://www.w3.org/2000/svg" xmlns:xlink="http://www.w3.org/1999/xlink" width="500" zoomAndPan="magnify" viewBox="0 0 375 374.999991" height="500" preserveAspectRatio="xMidYMid meet" version="1.0"><defs><g/></defs><rect x="-37.5" width="450" fill="#ffffff" y="-37.499999" height="449.999989" fill-opacity="1"/><rect x="-37.5" width="450" fill="#171716" y="-37.499999" height="449.999989" fill-opacity="1"/><path fill="#ffffff" d="M 170.667969 206.792969 C 173.933594 204.6875 175.886719 203.476562 177.789062 202.1875 C 186.273438 196.445312 190.523438 188.578125 190.449219 178.195312 C 190.300781 157.445312 190.386719 136.699219 190.421875 115.949219 C 190.433594 105.890625 192.265625 104.371094 203.617188 105.574219 C 203.617188 107.546875 203.617188 109.613281 203.617188 111.683594 C 203.617188 138.691406 203.605469 165.703125 203.628906 192.710938 C 203.640625 202.199219 204.9375 204.988281 210.761719 205.480469 C 221.113281 206.351562 229.519531 204.84375 231.648438 196.890625 C 232.933594 192.09375 234.171875 187.113281 234.261719 182.195312 C 234.589844 163.960938 234.453125 145.71875 234.4375 127.476562 C 234.4375 125.523438 234.226562 123.546875 233.894531 121.617188 C 231.164062 105.65625 225.640625 101.003906 209.347656 101.03125 C 204.886719 101.039062 200.367188 100.9375 195.980469 101.585938 C 188.621094 102.675781 186.605469 105.164062 186.511719 112.714844 C 186.367188 123.984375 186.453125 135.253906 186.441406 146.523438 C 186.433594 157.613281 186.445312 168.703125 186.421875 179.792969 C 186.402344 186.644531 183.941406 192.574219 178.429688 196.609375 C 161.335938 209.121094 142.460938 212.105469 122.691406 204.621094 C 109.605469 199.664062 103.808594 186.429688 108.042969 174.585938 C 111.472656 164.996094 121.164062 159.648438 130.71875 162.078125 C 140.125 164.46875 145.476562 173.238281 143.574219 183.144531 C 141.835938 192.199219 133.585938 197.730469 123.898438 196.308594 C 122.351562 196.082031 120.816406 195.761719 119.074219 195.445312 C 121.964844 203.140625 129.660156 207.449219 138.636719 206.699219 C 146.441406 206.042969 152.566406 200.484375 153.972656 192.519531 C 154.5 189.539062 154.808594 186.484375 154.816406 183.460938 C 154.886719 160.925781 154.859375 138.382812 154.84375 115.847656 C 154.84375 114.242188 154.683594 112.636719 154.601562 111.035156 C 154.300781 105.34375 151.375 102.183594 145.652344 101.59375 C 143.933594 101.414062 142.238281 100.972656 140.550781 99.742188 C 142.894531 99.742188 145.238281 99.742188 147.582031 99.742188 C 170.65625 99.75 193.75 100.371094 216.804688 99.625 C 255.71875 98.363281 271.183594 130.285156 269.402344 156.0625 C 268.820312 164.480469 267.125 173.164062 264.042969 180.988281 C 258.085938 196.109375 246.664062 205.550781 229.933594 206.28125 C 211.546875 207.082031 193.121094 206.929688 174.710938 207.171875 C 173.882812 207.179688 173.058594 207.023438 170.667969 206.792969 Z M 170.667969 206.792969 " fill-opacity="1" fill-rule="nonzero"/><g fill="#000000" fill-opacity="0.302"><g transform="translate(220.18704, 145.587998)"><g><path d="M -5.28125 -3.0625 C -5.226562 -3.46875 -5.097656 -3.828125 -4.890625 -4.140625 C -4.691406 -4.460938 -4.410156 -4.710938 -4.046875 -4.890625 C -3.679688 -5.066406 -3.238281 -5.15625 -2.71875 -5.15625 C -2.1875 -5.15625 -1.726562 -5.0625 -1.34375 -4.875 C -0.96875 -4.695312 -0.664062 -4.445312 -0.4375 -4.125 C -0.21875 -3.800781 -0.0820312 -3.429688 -0.03125 -3.015625 C -0.0078125 -2.890625 0 -2.78125 0 -2.6875 C 0 -2.601562 0 -2.488281 0 -2.34375 L 0 -0.765625 L -5.296875 -0.765625 L -5.296875 -2.390625 C -5.296875 -2.523438 -5.296875 -2.632812 -5.296875 -2.71875 C -5.296875 -2.8125 -5.289062 -2.925781 -5.28125 -3.0625 Z M -0.578125 -2.953125 C -0.648438 -3.398438 -0.867188 -3.757812 -1.234375 -4.03125 C -1.597656 -4.300781 -2.09375 -4.4375 -2.71875 -4.4375 C -3.300781 -4.4375 -3.765625 -4.304688 -4.109375 -4.046875 C -4.453125 -3.796875 -4.660156 -3.441406 -4.734375 -2.984375 C -4.742188 -2.910156 -4.75 -2.816406 -4.75 -2.703125 C -4.757812 -2.597656 -4.765625 -2.476562 -4.765625 -2.34375 L -4.765625 -1.4375 L -0.53125 -1.4375 L -0.53125 -2.3125 C -0.53125 -2.445312 -0.53125 -2.566406 -0.53125 -2.671875 C -0.539062 -2.773438 -0.554688 -2.867188 -0.578125 -2.953125 Z M -0.578125 -2.953125 "/></g></g></g><g fill="#000000" fill-opacity="0.302"><g transform="translate(220.18704, 137.917566)"><g><path d="M -5.296875 -4.703125 L -1.953125 -4.703125 C -1.878906 -4.703125 -1.800781 -4.703125 -1.71875 -4.703125 C -1.632812 -4.703125 -1.554688 -4.695312 -1.484375 -4.6875 C -1.191406 -4.664062 -0.925781 -4.582031 -0.6875 -4.4375 C -0.445312 -4.289062 -0.253906 -4.070312 -0.109375 -3.78125 C 0.0351562 -3.5 0.109375 -3.144531 0.109375 -2.71875 C 0.109375 -2.28125 0.0351562 -1.921875 -0.109375 -1.640625 C -0.253906 -1.359375 -0.445312 -1.144531 -0.6875 -1 C -0.925781 -0.851562 -1.191406 -0.765625 -1.484375 -0.734375 C -1.554688 -0.734375 -1.632812 -0.726562 -1.71875 -0.71875 C -1.800781 -0.71875 -1.878906 -0.71875 -1.953125 -0.71875 L -5.296875 -0.71875 L -5.296875 -1.390625 L -2.015625 -1.390625 C -1.941406 -1.390625 -1.863281 -1.390625 -1.78125 -1.390625 C -1.695312 -1.390625 -1.617188 -1.394531 -1.546875 -1.40625 C -1.210938 -1.425781 -0.941406 -1.546875 -0.734375 -1.765625 C -0.523438 -1.992188 -0.421875 -2.3125 -0.421875 -2.71875 C -0.421875 -3.125 -0.523438 -3.4375 -0.734375 -3.65625 C -0.941406 -3.875 -1.210938 -4 -1.546875 -4.03125 C -1.617188 -4.039062 -1.695312 -4.046875 -1.78125 -4.046875 C -1.863281 -4.046875 -1.941406 -4.046875 -2.015625 -4.046875 L -5.296875 -4.046875 Z M -5.296875 -4.703125 "/></g></g></g><g fill="#000000" fill-opacity="0.302"><g transform="translate(220.18704, 130.454386)"><g><path d="M -2.828125 -3.421875 C -2.742188 -3.773438 -2.601562 -4.046875 -2.40625 -4.234375 C -2.207031 -4.421875 -1.925781 -4.515625 -1.5625 -4.515625 C -1.238281 -4.515625 -0.96875 -4.445312 -0.75 -4.3125 C -0.539062 -4.1875 -0.378906 -4.019531 -0.265625 -3.8125 C -0.148438 -3.601562 -0.0703125 -3.382812 -0.03125 -3.15625 C -0.0078125 -3.019531 0 -2.898438 0 -2.796875 C 0 -2.703125 0 -2.59375 0 -2.46875 L 0 -0.765625 L -5.296875 -0.765625 L -5.296875 -2.328125 C -5.296875 -2.453125 -5.296875 -2.566406 -5.296875 -2.671875 C -5.296875 -2.773438 -5.289062 -2.890625 -5.28125 -3.015625 C -5.21875 -3.441406 -5.078125 -3.765625 -4.859375 -3.984375 C -4.648438 -4.210938 -4.359375 -4.328125 -3.984375 -4.328125 C -3.660156 -4.328125 -3.40625 -4.242188 -3.21875 -4.078125 C -3.039062 -3.921875 -2.910156 -3.703125 -2.828125 -3.421875 Z M -4.765625 -1.4375 L -3.015625 -1.4375 L -3.015625 -2.453125 C -3.015625 -2.523438 -3.015625 -2.59375 -3.015625 -2.65625 C -3.023438 -2.726562 -3.035156 -2.800781 -3.046875 -2.875 C -3.085938 -3.144531 -3.1875 -3.335938 -3.34375 -3.453125 C -3.5 -3.566406 -3.691406 -3.625 -3.921875 -3.625 C -4.191406 -3.625 -4.390625 -3.546875 -4.515625 -3.390625 C -4.648438 -3.242188 -4.726562 -3.050781 -4.75 -2.8125 C -4.757812 -2.738281 -4.765625 -2.660156 -4.765625 -2.578125 C -4.765625 -2.503906 -4.765625 -2.441406 -4.765625 -2.390625 Z M -0.546875 -2.9375 C -0.578125 -3.195312 -0.671875 -3.40625 -0.828125 -3.5625 C -0.984375 -3.726562 -1.203125 -3.8125 -1.484375 -3.8125 C -1.816406 -3.8125 -2.050781 -3.734375 -2.1875 -3.578125 C -2.332031 -3.421875 -2.421875 -3.210938 -2.453125 -2.953125 C -2.460938 -2.867188 -2.46875 -2.789062 -2.46875 -2.71875 C -2.476562 -2.65625 -2.484375 -2.59375 -2.484375 -2.53125 L -2.484375 -1.4375 L -0.53125 -1.4375 L -0.53125 -2.578125 C -0.53125 -2.640625 -0.53125 -2.703125 -0.53125 -2.765625 C -0.539062 -2.835938 -0.546875 -2.894531 -0.546875 -2.9375 Z M -0.546875 -2.9375 "/></g></g></g><g fill="#000000" fill-opacity="0.302"><g transform="translate(220.18704, 123.413368)"><g><path d="M -0.53125 -4.296875 L 0 -4.296875 L 0 -0.765625 L -5.296875 -0.765625 L -5.296875 -4.21875 L -4.765625 -4.21875 L -4.765625 -1.4375 L -2.921875 -1.4375 L -2.921875 -3.984375 L -2.390625 -3.984375 L -2.390625 -1.4375 L -0.53125 -1.4375 Z M -0.53125 -4.296875 "/></g></g></g><g fill="#000000" fill-opacity="0.502"><g transform="translate(219.847461, 145.927579)"><g><path d="M -5.28125 -3.0625 C -5.226562 -3.46875 -5.097656 -3.828125 -4.890625 -4.140625 C -4.691406 -4.460938 -4.410156 -4.710938 -4.046875 -4.890625 C -3.679688 -5.066406 -3.238281 -5.15625 -2.71875 -5.15625 C -2.1875 -5.15625 -1.726562 -5.0625 -1.34375 -4.875 C -0.96875 -4.695312 -0.664062 -4.445312 -0.4375 -4.125 C -0.21875 -3.800781 -0.0820312 -3.429688 -0.03125 -3.015625 C -0.0078125 -2.890625 0 -2.78125 0 -2.6875 C 0 -2.601562 0 -2.488281 0 -2.34375 L 0 -0.765625 L -5.296875 -0.765625 L -5.296875 -2.390625 C -5.296875 -2.523438 -5.296875 -2.632812 -5.296875 -2.71875 C -5.296875 -2.8125 -5.289062 -2.925781 -5.28125 -3.0625 Z M -0.578125 -2.953125 C -0.648438 -3.398438 -0.867188 -3.757812 -1.234375 -4.03125 C -1.597656 -4.300781 -2.09375 -4.4375 -2.71875 -4.4375 C -3.300781 -4.4375 -3.765625 -4.304688 -4.109375 -4.046875 C -4.453125 -3.796875 -4.660156 -3.441406 -4.734375 -2.984375 C -4.742188 -2.910156 -4.75 -2.816406 -4.75 -2.703125 C -4.757812 -2.597656 -4.765625 -2.476562 -4.765625 -2.34375 L -4.765625 -1.4375 L -0.53125 -1.4375 L -0.53125 -2.3125 C -0.53125 -2.445312 -0.53125 -2.566406 -0.53125 -2.671875 C -0.539062 -2.773438 -0.554688 -2.867188 -0.578125 -2.953125 Z M -0.578125 -2.953125 "/></g></g></g><g fill="#000000" fill-opacity="0.502"><g transform="translate(219.847461, 138.257147)"><g><path d="M -5.296875 -4.703125 L -1.953125 -4.703125 C -1.878906 -4.703125 -1.800781 -4.703125 -1.71875 -4.703125 C -1.632812 -4.703125 -1.554688 -4.695312 -1.484375 -4.6875 C -1.191406 -4.664062 -0.925781 -4.582031 -0.6875 -4.4375 C -0.445312 -4.289062 -0.253906 -4.070312 -0.109375 -3.78125 C 0.0351562 -3.5 0.109375 -3.144531 0.109375 -2.71875 C 0.109375 -2.28125 0.0351562 -1.921875 -0.109375 -1.640625 C -0.253906 -1.359375 -0.445312 -1.144531 -0.6875 -1 C -0.925781 -0.851562 -1.191406 -0.765625 -1.484375 -0.734375 C -1.554688 -0.734375 -1.632812 -0.726562 -1.71875 -0.71875 C -1.800781 -0.71875 -1.878906 -0.71875 -1.953125 -0.71875 L -5.296875 -0.71875 L -5.296875 -1.390625 L -2.015625 -1.390625 C -1.941406 -1.390625 -1.863281 -1.390625 -1.78125 -1.390625 C -1.695312 -1.390625 -1.617188 -1.394531 -1.546875 -1.40625 C -1.210938 -1.425781 -0.941406 -1.546875 -0.734375 -1.765625 C -0.523438 -1.992188 -0.421875 -2.3125 -0.421875 -2.71875 C -0.421875 -3.125 -0.523438 -3.4375 -0.734375 -3.65625 C -0.941406 -3.875 -1.210938 -4 -1.546875 -4.03125 C -1.617188 -4.039062 -1.695312 -4.046875 -1.78125 -4.046875 C -1.863281 -4.046875 -1.941406 -4.046875 -2.015625 -4.046875 L -5.296875 -4.046875 Z M -5.296875 -4.703125 "/></g></g></g><g fill="#000000" fill-opacity="0.502"><g transform="translate(219.847461, 130.793967)"><g><path d="M -2.828125 -3.421875 C -2.742188 -3.773438 -2.601562 -4.046875 -2.40625 -4.234375 C -2.207031 -4.421875 -1.925781 -4.515625 -1.5625 -4.515625 C -1.238281 -4.515625 -0.96875 -4.445312 -0.75 -4.3125 C -0.539062 -4.1875 -0.378906 -4.019531 -0.265625 -3.8125 C -0.148438 -3.601562 -0.0703125 -3.382812 -0.03125 -3.15625 C -0.0078125 -3.019531 0 -2.898438 0 -2.796875 C 0 -2.703125 0 -2.59375 0 -2.46875 L 0 -0.765625 L -5.296875 -0.765625 L -5.296875 -2.328125 C -5.296875 -2.453125 -5.296875 -2.566406 -5.296875 -2.671875 C -5.296875 -2.773438 -5.289062 -2.890625 -5.28125 -3.015625 C -5.21875 -3.441406 -5.078125 -3.765625 -4.859375 -3.984375 C -4.648438 -4.210938 -4.359375 -4.328125 -3.984375 -4.328125 C -3.660156 -4.328125 -3.40625 -4.242188 -3.21875 -4.078125 C -3.039062 -3.921875 -2.910156 -3.703125 -2.828125 -3.421875 Z M -4.765625 -1.4375 L -3.015625 -1.4375 L -3.015625 -2.453125 C -3.015625 -2.523438 -3.015625 -2.59375 -3.015625 -2.65625 C -3.023438 -2.726562 -3.035156 -2.800781 -3.046875 -2.875 C -3.085938 -3.144531 -3.1875 -3.335938 -3.34375 -3.453125 C -3.5 -3.566406 -3.691406 -3.625 -3.921875 -3.625 C -4.191406 -3.625 -4.390625 -3.546875 -4.515625 -3.390625 C -4.648438 -3.242188 -4.726562 -3.050781 -4.75 -2.8125 C -4.757812 -2.738281 -4.765625 -2.660156 -4.765625 -2.578125 C -4.765625 -2.503906 -4.765625 -2.441406 -4.765625 -2.390625 Z M -0.546875 -2.9375 C -0.578125 -3.195312 -0.671875 -3.40625 -0.828125 -3.5625 C -0.984375 -3.726562 -1.203125 -3.8125 -1.484375 -3.8125 C -1.816406 -3.8125 -2.050781 -3.734375 -2.1875 -3.578125 C -2.332031 -3.421875 -2.421875 -3.210938 -2.453125 -2.953125 C -2.460938 -2.867188 -2.46875 -2.789062 -2.46875 -2.71875 C -2.476562 -2.65625 -2.484375 -2.59375 -2.484375 -2.53125 L -2.484375 -1.4375 L -0.53125 -1.4375 L -0.53125 -2.578125 C -0.53125 -2.640625 -0.53125 -2.703125 -0.53125 -2.765625 C -0.539062 -2.835938 -0.546875 -2.894531 -0.546875 -2.9375 Z M -0.546875 -2.9375 "/></g></g></g><g fill="#000000" fill-opacity="0.502"><g transform="translate(219.847461, 123.752949)"><g><path d="M -0.53125 -4.296875 L 0 -4.296875 L 0 -0.765625 L -5.296875 -0.765625 L -5.296875 -4.21875 L -4.765625 -4.21875 L -4.765625 -1.4375 L -2.921875 -1.4375 L -2.921875 -3.984375 L -2.390625 -3.984375 L -2.390625 -1.4375 L -0.53125 -1.4375 Z M -0.53125 -4.296875 "/></g></g></g><g fill="#e4e2dd" fill-opacity="1"><g transform="translate(219.50788, 146.26716)"><g><path d="M -5.28125 -3.0625 C -5.226562 -3.46875 -5.097656 -3.828125 -4.890625 -4.140625 C -4.691406 -4.460938 -4.410156 -4.710938 -4.046875 -4.890625 C -3.679688 -5.066406 -3.238281 -5.15625 -2.71875 -5.15625 C -2.1875 -5.15625 -1.726562 -5.0625 -1.34375 -4.875 C -0.96875 -4.695312 -0.664062 -4.445312 -0.4375 -4.125 C -0.21875 -3.800781 -0.0820312 -3.429688 -0.03125 -3.015625 C -0.0078125 -2.890625 0 -2.78125 0 -2.6875 C 0 -2.601562 0 -2.488281 0 -2.34375 L 0 -0.765625 L -5.296875 -0.765625 L -5.296875 -2.390625 C -5.296875 -2.523438 -5.296875 -2.632812 -5.296875 -2.71875 C -5.296875 -2.8125 -5.289062 -2.925781 -5.28125 -3.0625 Z M -0.578125 -2.953125 C -0.648438 -3.398438 -0.867188 -3.757812 -1.234375 -4.03125 C -1.597656 -4.300781 -2.09375 -4.4375 -2.71875 -4.4375 C -3.300781 -4.4375 -3.765625 -4.304688 -4.109375 -4.046875 C -4.453125 -3.796875 -4.660156 -3.441406 -4.734375 -2.984375 C -4.742188 -2.910156 -4.75 -2.816406 -4.75 -2.703125 C -4.757812 -2.597656 -4.765625 -2.476562 -4.765625 -2.34375 L -4.765625 -1.4375 L -0.53125 -1.4375 L -0.53125 -2.3125 C -0.53125 -2.445312 -0.53125 -2.566406 -0.53125 -2.671875 C -0.539062 -2.773438 -0.554688 -2.867188 -0.578125 -2.953125 Z M -0.578125 -2.953125 "/></g></g></g><g fill="#e4e2dd" fill-opacity="1"><g transform="translate(219.50788, 138.596727)"><g><path d="M -5.296875 -4.703125 L -1.953125 -4.703125 C -1.878906 -4.703125 -1.800781 -4.703125 -1.71875 -4.703125 C -1.632812 -4.703125 -1.554688 -4.695312 -1.484375 -4.6875 C -1.191406 -4.664062 -0.925781 -4.582031 -0.6875 -4.4375 C -0.445312 -4.289062 -0.253906 -4.070312 -0.109375 -3.78125 C 0.0351562 -3.5 0.109375 -3.144531 0.109375 -2.71875 C 0.109375 -2.28125 0.0351562 -1.921875 -0.109375 -1.640625 C -0.253906 -1.359375 -0.445312 -1.144531 -0.6875 -1 C -0.925781 -0.851562 -1.191406 -0.765625 -1.484375 -0.734375 C -1.554688 -0.734375 -1.632812 -0.726562 -1.71875 -0.71875 C -1.800781 -0.71875 -1.878906 -0.71875 -1.953125 -0.71875 L -5.296875 -0.71875 L -5.296875 -1.390625 L -2.015625 -1.390625 C -1.941406 -1.390625 -1.863281 -1.390625 -1.78125 -1.390625 C -1.695312 -1.390625 -1.617188 -1.394531 -1.546875 -1.40625 C -1.210938 -1.425781 -0.941406 -1.546875 -0.734375 -1.765625 C -0.523438 -1.992188 -0.421875 -2.3125 -0.421875 -2.71875 C -0.421875 -3.125 -0.523438 -3.4375 -0.734375 -3.65625 C -0.941406 -3.875 -1.210938 -4 -1.546875 -4.03125 C -1.617188 -4.039062 -1.695312 -4.046875 -1.78125 -4.046875 C -1.863281 -4.046875 -1.941406 -4.046875 -2.015625 -4.046875 L -5.296875 -4.046875 Z M -5.296875 -4.703125 "/></g></g></g><g fill="#e4e2dd" fill-opacity="1"><g transform="translate(219.50788, 131.133548)"><g><path d="M -2.828125 -3.421875 C -2.742188 -3.773438 -2.601562 -4.046875 -2.40625 -4.234375 C -2.207031 -4.421875 -1.925781 -4.515625 -1.5625 -4.515625 C -1.238281 -4.515625 -0.96875 -4.445312 -0.75 -4.3125 C -0.539062 -4.1875 -0.378906 -4.019531 -0.265625 -3.8125 C -0.148438 -3.601562 -0.0703125 -3.382812 -0.03125 -3.15625 C -0.0078125 -3.019531 0 -2.898438 0 -2.796875 C 0 -2.703125 0 -2.59375 0 -2.46875 L 0 -0.765625 L -5.296875 -0.765625 L -5.296875 -2.328125 C -5.296875 -2.453125 -5.296875 -2.566406 -5.296875 -2.671875 C -5.296875 -2.773438 -5.289062 -2.890625 -5.28125 -3.015625 C -5.21875 -3.441406 -5.078125 -3.765625 -4.859375 -3.984375 C -4.648438 -4.210938 -4.359375 -4.328125 -3.984375 -4.328125 C -3.660156 -4.328125 -3.40625 -4.242188 -3.21875 -4.078125 C -3.039062 -3.921875 -2.910156 -3.703125 -2.828125 -3.421875 Z M -4.765625 -1.4375 L -3.015625 -1.4375 L -3.015625 -2.453125 C -3.015625 -2.523438 -3.015625 -2.59375 -3.015625 -2.65625 C -3.023438 -2.726562 -3.035156 -2.800781 -3.046875 -2.875 C -3.085938 -3.144531 -3.1875 -3.335938 -3.34375 -3.453125 C -3.5 -3.566406 -3.691406 -3.625 -3.921875 -3.625 C -4.191406 -3.625 -4.390625 -3.546875 -4.515625 -3.390625 C -4.648438 -3.242188 -4.726562 -3.050781 -4.75 -2.8125 C -4.757812 -2.738281 -4.765625 -2.660156 -4.765625 -2.578125 C -4.765625 -2.503906 -4.765625 -2.441406 -4.765625 -2.390625 Z M -0.546875 -2.9375 C -0.578125 -3.195312 -0.671875 -3.40625 -0.828125 -3.5625 C -0.984375 -3.726562 -1.203125 -3.8125 -1.484375 -3.8125 C -1.816406 -3.8125 -2.050781 -3.734375 -2.1875 -3.578125 C -2.332031 -3.421875 -2.421875 -3.210938 -2.453125 -2.953125 C -2.460938 -2.867188 -2.46875 -2.789062 -2.46875 -2.71875 C -2.476562 -2.65625 -2.484375 -2.59375 -2.484375 -2.53125 L -2.484375 -1.4375 L -0.53125 -1.4375 L -0.53125 -2.578125 C -0.53125 -2.640625 -0.53125 -2.703125 -0.53125 -2.765625 C -0.539062 -2.835938 -0.546875 -2.894531 -0.546875 -2.9375 Z M -0.546875 -2.9375 "/></g></g></g><g fill="#e4e2dd" fill-opacity="1"><g transform="translate(219.50788, 124.092529)"><g><path d="M -0.53125 -4.296875 L 0 -4.296875 L 0 -0.765625 L -5.296875 -0.765625 L -5.296875 -4.21875 L -4.765625 -4.21875 L -4.765625 -1.4375 L -2.921875 -1.4375 L -2.921875 -3.984375 L -2.390625 -3.984375 L -2.390625 -1.4375 L -0.53125 -1.4375 Z M -0.53125 -4.296875 "/></g></g></g><g fill="#000000" fill-opacity="0.302"><g transform="translate(220.18704, 191.398377)"><g><path d="M -5.296875 -3.75 L -2.03125 -3.75 C -1.9375 -3.75 -1.835938 -3.75 -1.734375 -3.75 C -1.640625 -3.75 -1.523438 -3.742188 -1.390625 -3.734375 C -0.941406 -3.710938 -0.578125 -3.5625 -0.296875 -3.28125 C -0.0234375 -3.007812 0.109375 -2.585938 0.109375 -2.015625 C 0.109375 -1.523438 -0.03125 -1.140625 -0.3125 -0.859375 C -0.601562 -0.585938 -0.992188 -0.445312 -1.484375 -0.4375 L -1.8125 -0.421875 L -1.8125 -1.078125 L -1.484375 -1.09375 C -0.773438 -1.132812 -0.421875 -1.472656 -0.421875 -2.109375 C -0.421875 -2.421875 -0.507812 -2.65625 -0.6875 -2.8125 C -0.875 -2.96875 -1.125 -3.054688 -1.4375 -3.078125 C -1.507812 -3.085938 -1.59375 -3.09375 -1.6875 -3.09375 C -1.789062 -3.09375 -1.910156 -3.09375 -2.046875 -3.09375 L -5.296875 -3.09375 Z M -5.296875 -3.75 "/></g></g></g><g fill="#000000" fill-opacity="0.302"><g transform="translate(220.18704, 184.994451)"><g><path d="M 0 -1.4375 L 0 -0.765625 L -5.296875 -0.765625 L -5.296875 -1.4375 Z M 0 -1.4375 "/></g></g></g><g fill="#000000" fill-opacity="0.302"><g transform="translate(220.18704, 180.739736)"><g><path d="M -5.296875 -6.0625 L 0 -6.0625 L 0 -5.390625 L -2.734375 -5.390625 C -3.066406 -5.390625 -3.40625 -5.390625 -3.75 -5.390625 C -4.101562 -5.398438 -4.421875 -5.40625 -4.703125 -5.40625 C -4.421875 -5.320312 -4.101562 -5.222656 -3.75 -5.109375 C -3.394531 -4.992188 -3.054688 -4.878906 -2.734375 -4.765625 L 0 -3.828125 L 0 -3 L -2.75 -2.046875 C -3.070312 -1.941406 -3.40625 -1.832031 -3.75 -1.71875 C -4.09375 -1.601562 -4.40625 -1.503906 -4.6875 -1.421875 C -4.40625 -1.429688 -4.085938 -1.4375 -3.734375 -1.4375 C -3.390625 -1.4375 -3.054688 -1.4375 -2.734375 -1.4375 L 0 -1.4375 L 0 -0.765625 L -5.296875 -0.765625 L -5.296875 -1.859375 L -0.5625 -3.421875 L -5.296875 -4.984375 Z M -5.296875 -6.0625 "/></g></g></g><g fill="#000000" fill-opacity="0.302"><g transform="translate(220.18704, 171.864219)"><g><path d="M -1.875 -3.5 L -1.875 -1.546875 L 0 -0.9375 L 0 -0.21875 L -5.296875 -2.125 L -5.296875 -3.015625 L 0 -4.84375 L 0 -4.140625 Z M -2.40625 -1.734375 L -2.40625 -3.328125 L -4.78125 -2.5625 Z M -2.40625 -1.734375 "/></g></g></g><g fill="#000000" fill-opacity="0.502"><g transform="translate(219.847461, 191.737957)"><g><path d="M -5.296875 -3.75 L -2.03125 -3.75 C -1.9375 -3.75 -1.835938 -3.75 -1.734375 -3.75 C -1.640625 -3.75 -1.523438 -3.742188 -1.390625 -3.734375 C -0.941406 -3.710938 -0.578125 -3.5625 -0.296875 -3.28125 C -0.0234375 -3.007812 0.109375 -2.585938 0.109375 -2.015625 C 0.109375 -1.523438 -0.03125 -1.140625 -0.3125 -0.859375 C -0.601562 -0.585938 -0.992188 -0.445312 -1.484375 -0.4375 L -1.8125 -0.421875 L -1.8125 -1.078125 L -1.484375 -1.09375 C -0.773438 -1.132812 -0.421875 -1.472656 -0.421875 -2.109375 C -0.421875 -2.421875 -0.507812 -2.65625 -0.6875 -2.8125 C -0.875 -2.96875 -1.125 -3.054688 -1.4375 -3.078125 C -1.507812 -3.085938 -1.59375 -3.09375 -1.6875 -3.09375 C -1.789062 -3.09375 -1.910156 -3.09375 -2.046875 -3.09375 L -5.296875 -3.09375 Z M -5.296875 -3.75 "/></g></g></g><g fill="#000000" fill-opacity="0.502"><g transform="translate(219.847461, 185.334031)"><g><path d="M 0 -1.4375 L 0 -0.765625 L -5.296875 -0.765625 L -5.296875 -1.4375 Z M 0 -1.4375 "/></g></g></g><g fill="#000000" fill-opacity="0.502"><g transform="translate(219.847461, 181.079317)"><g><path d="M -5.296875 -6.0625 L 0 -6.0625 L 0 -5.390625 L -2.734375 -5.390625 C -3.066406 -5.390625 -3.40625 -5.390625 -3.75 -5.390625 C -4.101562 -5.398438 -4.421875 -5.40625 -4.703125 -5.40625 C -4.421875 -5.320312 -4.101562 -5.222656 -3.75 -5.109375 C -3.394531 -4.992188 -3.054688 -4.878906 -2.734375 -4.765625 L 0 -3.828125 L 0 -3 L -2.75 -2.046875 C -3.070312 -1.941406 -3.40625 -1.832031 -3.75 -1.71875 C -4.09375 -1.601562 -4.40625 -1.503906 -4.6875 -1.421875 C -4.40625 -1.429688 -4.085938 -1.4375 -3.734375 -1.4375 C -3.390625 -1.4375 -3.054688 -1.4375 -2.734375 -1.4375 L 0 -1.4375 L 0 -0.765625 L -5.296875 -0.765625 L -5.296875 -1.859375 L -0.5625 -3.421875 L -5.296875 -4.984375 Z M -5.296875 -6.0625 "/></g></g></g><g fill="#000000" fill-opacity="0.502"><g transform="translate(219.847461, 172.203799)"><g><path d="M -1.875 -3.5 L -1.875 -1.546875 L 0 -0.9375 L 0 -0.21875 L -5.296875 -2.125 L -5.296875 -3.015625 L 0 -4.84375 L 0 -4.140625 Z M -2.40625 -1.734375 L -2.40625 -3.328125 L -4.78125 -2.5625 Z M -2.40625 -1.734375 "/></g></g></g><g fill="#e4e2dd" fill-opacity="1"><g transform="translate(219.50788, 192.077536)"><g><path d="M -5.296875 -3.75 L -2.03125 -3.75 C -1.9375 -3.75 -1.835938 -3.75 -1.734375 -3.75 C -1.640625 -3.75 -1.523438 -3.742188 -1.390625 -3.734375 C -0.941406 -3.710938 -0.578125 -3.5625 -0.296875 -3.28125 C -0.0234375 -3.007812 0.109375 -2.585938 0.109375 -2.015625 C 0.109375 -1.523438 -0.03125 -1.140625 -0.3125 -0.859375 C -0.601562 -0.585938 -0.992188 -0.445312 -1.484375 -0.4375 L -1.8125 -0.421875 L -1.8125 -1.078125 L -1.484375 -1.09375 C -0.773438 -1.132812 -0.421875 -1.472656 -0.421875 -2.109375 C -0.421875 -2.421875 -0.507812 -2.65625 -0.6875 -2.8125 C -0.875 -2.96875 -1.125 -3.054688 -1.4375 -3.078125 C -1.507812 -3.085938 -1.59375 -3.09375 -1.6875 -3.09375 C -1.789062 -3.09375 -1.910156 -3.09375 -2.046875 -3.09375 L -5.296875 -3.09375 Z M -5.296875 -3.75 "/></g></g></g><g fill="#e4e2dd" fill-opacity="1"><g transform="translate(219.50788, 185.67361)"><g><path d="M 0 -1.4375 L 0 -0.765625 L -5.296875 -0.765625 L -5.296875 -1.4375 Z M 0 -1.4375 "/></g></g></g><g fill="#e4e2dd" fill-opacity="1"><g transform="translate(219.50788, 181.418896)"><g><path d="M -5.296875 -6.0625 L 0 -6.0625 L 0 -5.390625 L -2.734375 -5.390625 C -3.066406 -5.390625 -3.40625 -5.390625 -3.75 -5.390625 C -4.101562 -5.398438 -4.421875 -5.40625 -4.703125 -5.40625 C -4.421875 -5.320312 -4.101562 -5.222656 -3.75 -5.109375 C -3.394531 -4.992188 -3.054688 -4.878906 -2.734375 -4.765625 L 0 -3.828125 L 0 -3 L -2.75 -2.046875 C -3.070312 -1.941406 -3.40625 -1.832031 -3.75 -1.71875 C -4.09375 -1.601562 -4.40625 -1.503906 -4.6875 -1.421875 C -4.40625 -1.429688 -4.085938 -1.4375 -3.734375 -1.4375 C -3.390625 -1.4375 -3.054688 -1.4375 -2.734375 -1.4375 L 0 -1.4375 L 0 -0.765625 L -5.296875 -0.765625 L -5.296875 -1.859375 L -0.5625 -3.421875 L -5.296875 -4.984375 Z M -5.296875 -6.0625 "/></g></g></g><g fill="#e4e2dd" fill-opacity="1"><g transform="translate(219.50788, 172.543378)"><g><path d="M -1.875 -3.5 L -1.875 -1.546875 L 0 -0.9375 L 0 -0.21875 L -5.296875 -2.125 L -5.296875 -3.015625 L 0 -4.84375 L 0 -4.140625 Z M -2.40625 -1.734375 L -2.40625 -3.328125 L -4.78125 -2.5625 Z M -2.40625 -1.734375 "/></g></g></g></svg>