<svg xmlns="http://www.w3.org/2000/svg" xmlns:xlink="http://www.w3.org/1999/xlink" width="500" zoomAndPan="magnify" viewBox="0 0 375 374.999991" height="500" preserveAspectRatio="xMidYMid meet" version="1.0"><defs><g/></defs><path fill="#404040" d="M 170.667969 206.792969 C 173.933594 204.6875 175.886719 203.476562 177.789062 202.1875 C 186.273438 196.445312 190.523438 188.578125 190.449219 178.195312 C 190.300781 157.445312 190.386719 136.699219 190.421875 115.949219 C 190.433594 105.890625 192.265625 104.371094 203.617188 105.574219 C 203.617188 107.546875 203.617188 109.613281 203.617188 111.683594 C 203.617188 138.691406 203.605469 165.703125 203.628906 192.710938 C 203.640625 202.199219 204.9375 204.988281 210.761719 205.480469 C 221.113281 206.351562 229.519531 204.84375 231.648438 196.890625 C 232.933594 192.09375 234.171875 187.113281 234.261719 182.195312 C 234.589844 163.960938 234.453125 145.71875 234.4375 127.476562 C 234.4375 125.523438 234.226562 123.546875 233.894531 121.617188 C 231.164062 105.65625 225.640625 101.003906 209.347656 101.03125 C 204.886719 101.039062 200.367188 100.9375 195.980469 101.585938 C 188.621094 102.675781 186.605469 105.164062 186.511719 112.714844 C 186.367188 123.984375 186.453125 135.253906 186.441406 146.523438 C 186.433594 157.613281 186.445312 168.703125 186.421875 179.792969 C 186.402344 186.644531 183.941406 192.574219 178.429688 196.609375 C 161.335938 209.121094 142.460938 212.105469 122.691406 204.621094 C 109.605469 199.664062 103.808594 186.429688 108.042969 174.585938 C 111.472656 164.996094 121.164062 159.648438 130.71875 162.078125 C 140.125 164.46875 145.476562 173.238281 143.574219 183.144531 C 141.835938 192.199219 133.585938 197.730469 123.898438 196.308594 C 122.351562 196.082031 120.816406 195.761719 119.074219 195.445312 C 121.964844 203.140625 129.660156 207.449219 138.636719 206.699219 C 146.441406 206.042969 152.566406 200.484375 153.972656 192.519531 C 154.5 189.539062 154.808594 186.484375 154.816406 183.460938 C 154.886719 160.925781 154.859375 138.382812 154.84375 115.847656 C 154.84375 114.242188 154.683594 112.636719 154.601562 111.035156 C 154.300781 105.34375 151.375 102.183594 145.652344 101.59375 C 143.933594 101.414062 142.238281 100.972656 140.550781 99.742188 C 142.894531 99.742188 145.238281 99.742188 147.582031 99.742188 C 170.65625 99.75 193.75 100.371094 216.804688 99.625 C 255.71875 98.363281 271.183594 130.285156 269.402344 156.0625 C 268.820312 164.480469 267.125 173.164062 264.042969 180.988281 C 258.085938 196.109375 246.664062 205.550781 229.933594 206.28125 C 211.546875 207.082031 193.121094 206.929688 174.710938 207.171875 C 173.882812 207.179688 173.058594 207.023438 170.667969 206.792969 Z M 170.667969 206.792969 " fill-opacity="1" fill-rule="nonzero"/><g fill="#404040" fill-opacity="0.302"><g transform="translate(220.93704, 142.552974)"><g><path d="M -6.15625 -1.09375 C -6.15625 -1.382812 -6.132812 -1.695312 -6.09375 -2.03125 C -6.050781 -2.363281 -5.96875 -2.6875 -5.84375 -3 C -5.726562 -3.3125 -5.554688 -3.59375 -5.328125 -3.84375 C -5.109375 -4.101562 -4.8125 -4.304688 -4.4375 -4.453125 C -4.070312 -4.609375 -3.617188 -4.6875 -3.078125 -4.6875 C -2.546875 -4.6875 -2.097656 -4.613281 -1.734375 -4.46875 C -1.378906 -4.320312 -1.085938 -4.117188 -0.859375 -3.859375 C -0.628906 -3.609375 -0.453125 -3.328125 -0.328125 -3.015625 C -0.203125 -2.703125 -0.113281 -2.378906 -0.0625 -2.046875 C -0.0195312 -1.710938 0 -1.394531 0 -1.09375 L 0 -0.078125 C 0 -0.0234375 -0.0195312 0 -0.0625 0 L -2.484375 0 L -2.484375 -1.171875 L -1.125 -1.171875 C -1.125 -1.328125 -1.128906 -1.503906 -1.140625 -1.703125 C -1.148438 -1.898438 -1.1875 -2.101562 -1.25 -2.3125 C -1.320312 -2.519531 -1.425781 -2.710938 -1.5625 -2.890625 C -1.695312 -3.078125 -1.882812 -3.222656 -2.125 -3.328125 C -2.375 -3.441406 -2.691406 -3.5 -3.078125 -3.5 C -3.566406 -3.5 -3.957031 -3.394531 -4.25 -3.1875 C -4.539062 -2.988281 -4.75 -2.710938 -4.875 -2.359375 C -5 -2.015625 -5.050781 -1.617188 -5.03125 -1.171875 L -3.671875 -1.171875 L -3.671875 0 L -6.078125 0 C -6.128906 0 -6.15625 -0.0234375 -6.15625 -0.078125 Z M -6.15625 -1.09375 "/></g></g></g><g fill="#404040" fill-opacity="0.302"><g transform="translate(220.93704, 136.787584)"><g><path d="M -6.15625 -4.53125 C -6.15625 -4.582031 -6.128906 -4.609375 -6.078125 -4.609375 L -2.046875 -4.609375 C -1.617188 -4.609375 -1.25 -4.503906 -0.9375 -4.296875 C -0.632812 -4.097656 -0.398438 -3.820312 -0.234375 -3.46875 C -0.078125 -3.125 0 -2.738281 0 -2.3125 C 0 -1.882812 -0.0820312 -1.492188 -0.25 -1.140625 C -0.414062 -0.796875 -0.648438 -0.519531 -0.953125 -0.3125 C -1.265625 -0.101562 -1.628906 0 -2.046875 0 L -5.03125 0 L -5.03125 -1.15625 L -2.0625 -1.15625 C -1.757812 -1.195312 -1.523438 -1.328125 -1.359375 -1.546875 C -1.203125 -1.773438 -1.125 -2.03125 -1.125 -2.3125 C -1.125 -2.5 -1.15625 -2.679688 -1.21875 -2.859375 C -1.289062 -3.035156 -1.394531 -3.175781 -1.53125 -3.28125 C -1.675781 -3.394531 -1.847656 -3.453125 -2.046875 -3.453125 L -6.078125 -3.453125 C -6.128906 -3.453125 -6.15625 -3.476562 -6.15625 -3.53125 Z M -6.15625 -4.53125 "/></g></g></g><g fill="#404040" fill-opacity="0.302"><g transform="translate(220.93704, 131.106629)"><g><path d="M -4.328125 -3 C -4.503906 -3 -4.640625 -2.953125 -4.734375 -2.859375 C -4.835938 -2.765625 -4.910156 -2.660156 -4.953125 -2.546875 C -5.003906 -2.429688 -5.03125 -2.328125 -5.03125 -2.234375 C -5.039062 -2.140625 -5.046875 -2.09375 -5.046875 -2.09375 L -5.046875 -1.171875 L -3.640625 -1.171875 L -3.640625 -2.09375 C -3.640625 -2.09375 -3.644531 -2.140625 -3.65625 -2.234375 C -3.664062 -2.328125 -3.691406 -2.429688 -3.734375 -2.546875 C -3.773438 -2.660156 -3.835938 -2.765625 -3.921875 -2.859375 C -4.015625 -2.953125 -4.148438 -3 -4.328125 -3 Z M -4.390625 -4.171875 C -4.023438 -4.171875 -3.738281 -4.085938 -3.53125 -3.921875 C -3.320312 -3.753906 -3.171875 -3.554688 -3.078125 -3.328125 C -2.992188 -3.566406 -2.878906 -3.75 -2.734375 -3.875 C -2.597656 -4.007812 -2.457031 -4.101562 -2.3125 -4.15625 C -2.164062 -4.207031 -2.039062 -4.238281 -1.9375 -4.25 C -1.84375 -4.257812 -1.796875 -4.265625 -1.796875 -4.265625 C -1.453125 -4.265625 -1.164062 -4.203125 -0.9375 -4.078125 C -0.71875 -3.953125 -0.546875 -3.796875 -0.421875 -3.609375 C -0.296875 -3.429688 -0.203125 -3.238281 -0.140625 -3.03125 C -0.078125 -2.832031 -0.0351562 -2.644531 -0.015625 -2.46875 C -0.00390625 -2.300781 0 -2.175781 0 -2.09375 L 0 -1.171875 L -1.125 -1.171875 L -1.125 -2.09375 C -1.125 -2.21875 -1.140625 -2.359375 -1.171875 -2.515625 C -1.203125 -2.671875 -1.269531 -2.800781 -1.375 -2.90625 C -1.476562 -3.019531 -1.628906 -3.078125 -1.828125 -3.078125 C -1.960938 -3.078125 -2.078125 -3.046875 -2.171875 -2.984375 C -2.265625 -2.921875 -2.332031 -2.835938 -2.375 -2.734375 C -2.414062 -2.640625 -2.441406 -2.539062 -2.453125 -2.4375 C -2.472656 -2.34375 -2.484375 -2.257812 -2.484375 -2.1875 C -2.492188 -2.125 -2.5 -2.09375 -2.5 -2.09375 L -2.5 0 L -6.078125 0 C -6.128906 0 -6.15625 -0.0234375 -6.15625 -0.078125 L -6.15625 -2.09375 C -6.15625 -2.09375 -6.148438 -2.140625 -6.140625 -2.234375 C -6.140625 -2.335938 -6.125 -2.46875 -6.09375 -2.625 C -6.0625 -2.789062 -6.007812 -2.957031 -5.9375 -3.125 C -5.875 -3.300781 -5.773438 -3.46875 -5.640625 -3.625 C -5.515625 -3.789062 -5.347656 -3.921875 -5.140625 -4.015625 C -4.941406 -4.117188 -4.691406 -4.171875 -4.390625 -4.171875 Z M -4.390625 -4.171875 "/></g></g></g><g fill="#404040" fill-opacity="0.302"><g transform="translate(220.93704, 125.794116)"><g><path d="M -1.140625 -2.921875 L 0 -2.921875 L 0 -0.078125 C 0 -0.0234375 -0.0195312 0 -0.0625 0 L -6.078125 0 C -6.128906 0 -6.15625 -0.0234375 -6.15625 -0.078125 L -6.15625 -2.921875 L -5.03125 -2.921875 L -5.03125 -1.171875 L -3.640625 -1.171875 L -3.640625 -3.59375 C -3.640625 -3.644531 -3.617188 -3.671875 -3.578125 -3.671875 L -2.59375 -3.671875 C -2.550781 -3.671875 -2.53125 -3.644531 -2.53125 -3.59375 L -2.53125 -1.171875 L -1.140625 -1.171875 Z M -1.140625 -2.921875 "/></g></g></g><g fill="#404040" fill-opacity="0.502"><g transform="translate(220.597461, 142.892555)"><g><path d="M -6.15625 -1.09375 C -6.15625 -1.382812 -6.132812 -1.695312 -6.09375 -2.03125 C -6.050781 -2.363281 -5.96875 -2.6875 -5.84375 -3 C -5.726562 -3.3125 -5.554688 -3.59375 -5.328125 -3.84375 C -5.109375 -4.101562 -4.8125 -4.304688 -4.4375 -4.453125 C -4.070312 -4.609375 -3.617188 -4.6875 -3.078125 -4.6875 C -2.546875 -4.6875 -2.097656 -4.613281 -1.734375 -4.46875 C -1.378906 -4.320312 -1.085938 -4.117188 -0.859375 -3.859375 C -0.628906 -3.609375 -0.453125 -3.328125 -0.328125 -3.015625 C -0.203125 -2.703125 -0.113281 -2.378906 -0.0625 -2.046875 C -0.0195312 -1.710938 0 -1.394531 0 -1.09375 L 0 -0.078125 C 0 -0.0234375 -0.0195312 0 -0.0625 0 L -2.484375 0 L -2.484375 -1.171875 L -1.125 -1.171875 C -1.125 -1.328125 -1.128906 -1.503906 -1.140625 -1.703125 C -1.148438 -1.898438 -1.1875 -2.101562 -1.25 -2.3125 C -1.320312 -2.519531 -1.425781 -2.710938 -1.5625 -2.890625 C -1.695312 -3.078125 -1.882812 -3.222656 -2.125 -3.328125 C -2.375 -3.441406 -2.691406 -3.5 -3.078125 -3.5 C -3.566406 -3.5 -3.957031 -3.394531 -4.25 -3.1875 C -4.539062 -2.988281 -4.75 -2.710938 -4.875 -2.359375 C -5 -2.015625 -5.050781 -1.617188 -5.03125 -1.171875 L -3.671875 -1.171875 L -3.671875 0 L -6.078125 0 C -6.128906 0 -6.15625 -0.0234375 -6.15625 -0.078125 Z M -6.15625 -1.09375 "/></g></g></g><g fill="#404040" fill-opacity="0.502"><g transform="translate(220.597461, 137.127165)"><g><path d="M -6.15625 -4.53125 C -6.15625 -4.582031 -6.128906 -4.609375 -6.078125 -4.609375 L -2.046875 -4.609375 C -1.617188 -4.609375 -1.25 -4.503906 -0.9375 -4.296875 C -0.632812 -4.097656 -0.398438 -3.820312 -0.234375 -3.46875 C -0.078125 -3.125 0 -2.738281 0 -2.3125 C 0 -1.882812 -0.0820312 -1.492188 -0.25 -1.140625 C -0.414062 -0.796875 -0.648438 -0.519531 -0.953125 -0.3125 C -1.265625 -0.101562 -1.628906 0 -2.046875 0 L -5.03125 0 L -5.03125 -1.15625 L -2.0625 -1.15625 C -1.757812 -1.195312 -1.523438 -1.328125 -1.359375 -1.546875 C -1.203125 -1.773438 -1.125 -2.03125 -1.125 -2.3125 C -1.125 -2.5 -1.15625 -2.679688 -1.21875 -2.859375 C -1.289062 -3.035156 -1.394531 -3.175781 -1.53125 -3.28125 C -1.675781 -3.394531 -1.847656 -3.453125 -2.046875 -3.453125 L -6.078125 -3.453125 C -6.128906 -3.453125 -6.15625 -3.476562 -6.15625 -3.53125 Z M -6.15625 -4.53125 "/></g></g></g><g fill="#404040" fill-opacity="0.502"><g transform="translate(220.597461, 131.446209)"><g><path d="M -4.328125 -3 C -4.503906 -3 -4.640625 -2.953125 -4.734375 -2.859375 C -4.835938 -2.765625 -4.910156 -2.660156 -4.953125 -2.546875 C -5.003906 -2.429688 -5.03125 -2.328125 -5.03125 -2.234375 C -5.039062 -2.140625 -5.046875 -2.09375 -5.046875 -2.09375 L -5.046875 -1.171875 L -3.640625 -1.171875 L -3.640625 -2.09375 C -3.640625 -2.09375 -3.644531 -2.140625 -3.65625 -2.234375 C -3.664062 -2.328125 -3.691406 -2.429688 -3.734375 -2.546875 C -3.773438 -2.660156 -3.835938 -2.765625 -3.921875 -2.859375 C -4.015625 -2.953125 -4.148438 -3 -4.328125 -3 Z M -4.390625 -4.171875 C -4.023438 -4.171875 -3.738281 -4.085938 -3.53125 -3.921875 C -3.320312 -3.753906 -3.171875 -3.554688 -3.078125 -3.328125 C -2.992188 -3.566406 -2.878906 -3.75 -2.734375 -3.875 C -2.597656 -4.007812 -2.457031 -4.101562 -2.3125 -4.15625 C -2.164062 -4.207031 -2.039062 -4.238281 -1.9375 -4.25 C -1.84375 -4.257812 -1.796875 -4.265625 -1.796875 -4.265625 C -1.453125 -4.265625 -1.164062 -4.203125 -0.9375 -4.078125 C -0.71875 -3.953125 -0.546875 -3.796875 -0.421875 -3.609375 C -0.296875 -3.429688 -0.203125 -3.238281 -0.140625 -3.03125 C -0.078125 -2.832031 -0.0351562 -2.644531 -0.015625 -2.46875 C -0.00390625 -2.300781 0 -2.175781 0 -2.09375 L 0 -1.171875 L -1.125 -1.171875 L -1.125 -2.09375 C -1.125 -2.21875 -1.140625 -2.359375 -1.171875 -2.515625 C -1.203125 -2.671875 -1.269531 -2.800781 -1.375 -2.90625 C -1.476562 -3.019531 -1.628906 -3.078125 -1.828125 -3.078125 C -1.960938 -3.078125 -2.078125 -3.046875 -2.171875 -2.984375 C -2.265625 -2.921875 -2.332031 -2.835938 -2.375 -2.734375 C -2.414062 -2.640625 -2.441406 -2.539062 -2.453125 -2.4375 C -2.472656 -2.34375 -2.484375 -2.257812 -2.484375 -2.1875 C -2.492188 -2.125 -2.5 -2.09375 -2.5 -2.09375 L -2.5 0 L -6.078125 0 C -6.128906 0 -6.15625 -0.0234375 -6.15625 -0.078125 L -6.15625 -2.09375 C -6.15625 -2.09375 -6.148438 -2.140625 -6.140625 -2.234375 C -6.140625 -2.335938 -6.125 -2.46875 -6.09375 -2.625 C -6.0625 -2.789062 -6.007812 -2.957031 -5.9375 -3.125 C -5.875 -3.300781 -5.773438 -3.46875 -5.640625 -3.625 C -5.515625 -3.789062 -5.347656 -3.921875 -5.140625 -4.015625 C -4.941406 -4.117188 -4.691406 -4.171875 -4.390625 -4.171875 Z M -4.390625 -4.171875 "/></g></g></g><g fill="#404040" fill-opacity="0.502"><g transform="translate(220.597461, 126.133696)"><g><path d="M -1.140625 -2.921875 L 0 -2.921875 L 0 -0.078125 C 0 -0.0234375 -0.0195312 0 -0.0625 0 L -6.078125 0 C -6.128906 0 -6.15625 -0.0234375 -6.15625 -0.078125 L -6.15625 -2.921875 L -5.03125 -2.921875 L -5.03125 -1.171875 L -3.640625 -1.171875 L -3.640625 -3.59375 C -3.640625 -3.644531 -3.617188 -3.671875 -3.578125 -3.671875 L -2.59375 -3.671875 C -2.550781 -3.671875 -2.53125 -3.644531 -2.53125 -3.59375 L -2.53125 -1.171875 L -1.140625 -1.171875 Z M -1.140625 -2.921875 "/></g></g></g><g fill="#404040" fill-opacity="1"><g transform="translate(220.25788, 143.232133)"><g><path d="M -6.15625 -1.09375 C -6.15625 -1.382812 -6.132812 -1.695312 -6.09375 -2.03125 C -6.050781 -2.363281 -5.96875 -2.6875 -5.84375 -3 C -5.726562 -3.3125 -5.554688 -3.59375 -5.328125 -3.84375 C -5.109375 -4.101562 -4.8125 -4.304688 -4.4375 -4.453125 C -4.070312 -4.609375 -3.617188 -4.6875 -3.078125 -4.6875 C -2.546875 -4.6875 -2.097656 -4.613281 -1.734375 -4.46875 C -1.378906 -4.320312 -1.085938 -4.117188 -0.859375 -3.859375 C -0.628906 -3.609375 -0.453125 -3.328125 -0.328125 -3.015625 C -0.203125 -2.703125 -0.113281 -2.378906 -0.0625 -2.046875 C -0.0195312 -1.710938 0 -1.394531 0 -1.09375 L 0 -0.078125 C 0 -0.0234375 -0.0195312 0 -0.0625 0 L -2.484375 0 L -2.484375 -1.171875 L -1.125 -1.171875 C -1.125 -1.328125 -1.128906 -1.503906 -1.140625 -1.703125 C -1.148438 -1.898438 -1.1875 -2.101562 -1.25 -2.3125 C -1.320312 -2.519531 -1.425781 -2.710938 -1.5625 -2.890625 C -1.695312 -3.078125 -1.882812 -3.222656 -2.125 -3.328125 C -2.375 -3.441406 -2.691406 -3.5 -3.078125 -3.5 C -3.566406 -3.5 -3.957031 -3.394531 -4.25 -3.1875 C -4.539062 -2.988281 -4.75 -2.710938 -4.875 -2.359375 C -5 -2.015625 -5.050781 -1.617188 -5.03125 -1.171875 L -3.671875 -1.171875 L -3.671875 0 L -6.078125 0 C -6.128906 0 -6.15625 -0.0234375 -6.15625 -0.078125 Z M -6.15625 -1.09375 "/></g></g></g><g fill="#404040" fill-opacity="1"><g transform="translate(220.25788, 137.466743)"><g><path d="M -6.15625 -4.53125 C -6.15625 -4.582031 -6.128906 -4.609375 -6.078125 -4.609375 L -2.046875 -4.609375 C -1.617188 -4.609375 -1.25 -4.503906 -0.9375 -4.296875 C -0.632812 -4.097656 -0.398438 -3.820312 -0.234375 -3.46875 C -0.078125 -3.125 0 -2.738281 0 -2.3125 C 0 -1.882812 -0.0820312 -1.492188 -0.25 -1.140625 C -0.414062 -0.796875 -0.648438 -0.519531 -0.953125 -0.3125 C -1.265625 -0.101562 -1.628906 0 -2.046875 0 L -5.03125 0 L -5.03125 -1.15625 L -2.0625 -1.15625 C -1.757812 -1.195312 -1.523438 -1.328125 -1.359375 -1.546875 C -1.203125 -1.773438 -1.125 -2.03125 -1.125 -2.3125 C -1.125 -2.5 -1.15625 -2.679688 -1.21875 -2.859375 C -1.289062 -3.035156 -1.394531 -3.175781 -1.53125 -3.28125 C -1.675781 -3.394531 -1.847656 -3.453125 -2.046875 -3.453125 L -6.078125 -3.453125 C -6.128906 -3.453125 -6.15625 -3.476562 -6.15625 -3.53125 Z M -6.15625 -4.53125 "/></g></g></g><g fill="#404040" fill-opacity="1"><g transform="translate(220.25788, 131.785788)"><g><path d="M -4.328125 -3 C -4.503906 -3 -4.640625 -2.953125 -4.734375 -2.859375 C -4.835938 -2.765625 -4.910156 -2.660156 -4.953125 -2.546875 C -5.003906 -2.429688 -5.03125 -2.328125 -5.03125 -2.234375 C -5.039062 -2.140625 -5.046875 -2.09375 -5.046875 -2.09375 L -5.046875 -1.171875 L -3.640625 -1.171875 L -3.640625 -2.09375 C -3.640625 -2.09375 -3.644531 -2.140625 -3.65625 -2.234375 C -3.664062 -2.328125 -3.691406 -2.429688 -3.734375 -2.546875 C -3.773438 -2.660156 -3.835938 -2.765625 -3.921875 -2.859375 C -4.015625 -2.953125 -4.148438 -3 -4.328125 -3 Z M -4.390625 -4.171875 C -4.023438 -4.171875 -3.738281 -4.085938 -3.53125 -3.921875 C -3.320312 -3.753906 -3.171875 -3.554688 -3.078125 -3.328125 C -2.992188 -3.566406 -2.878906 -3.75 -2.734375 -3.875 C -2.597656 -4.007812 -2.457031 -4.101562 -2.3125 -4.15625 C -2.164062 -4.207031 -2.039062 -4.238281 -1.9375 -4.25 C -1.84375 -4.257812 -1.796875 -4.265625 -1.796875 -4.265625 C -1.453125 -4.265625 -1.164062 -4.203125 -0.9375 -4.078125 C -0.71875 -3.953125 -0.546875 -3.796875 -0.421875 -3.609375 C -0.296875 -3.429688 -0.203125 -3.238281 -0.140625 -3.03125 C -0.078125 -2.832031 -0.0351562 -2.644531 -0.015625 -2.46875 C -0.00390625 -2.300781 0 -2.175781 0 -2.09375 L 0 -1.171875 L -1.125 -1.171875 L -1.125 -2.09375 C -1.125 -2.21875 -1.140625 -2.359375 -1.171875 -2.515625 C -1.203125 -2.671875 -1.269531 -2.800781 -1.375 -2.90625 C -1.476562 -3.019531 -1.628906 -3.078125 -1.828125 -3.078125 C -1.960938 -3.078125 -2.078125 -3.046875 -2.171875 -2.984375 C -2.265625 -2.921875 -2.332031 -2.835938 -2.375 -2.734375 C -2.414062 -2.640625 -2.441406 -2.539062 -2.453125 -2.4375 C -2.472656 -2.34375 -2.484375 -2.257812 -2.484375 -2.1875 C -2.492188 -2.125 -2.5 -2.09375 -2.5 -2.09375 L -2.5 0 L -6.078125 0 C -6.128906 0 -6.15625 -0.0234375 -6.15625 -0.078125 L -6.15625 -2.09375 C -6.15625 -2.09375 -6.148438 -2.140625 -6.140625 -2.234375 C -6.140625 -2.335938 -6.125 -2.46875 -6.09375 -2.625 C -6.0625 -2.789062 -6.007812 -2.957031 -5.9375 -3.125 C -5.875 -3.300781 -5.773438 -3.46875 -5.640625 -3.625 C -5.515625 -3.789062 -5.347656 -3.921875 -5.140625 -4.015625 C -4.941406 -4.117188 -4.691406 -4.171875 -4.390625 -4.171875 Z M -4.390625 -4.171875 "/></g></g></g><g fill="#404040" fill-opacity="1"><g transform="translate(220.25788, 126.473275)"><g><path d="M -1.140625 -2.921875 L 0 -2.921875 L 0 -0.078125 C 0 -0.0234375 -0.0195312 0 -0.0625 0 L -6.078125 0 C -6.128906 0 -6.15625 -0.0234375 -6.15625 -0.078125 L -6.15625 -2.921875 L -5.03125 -2.921875 L -5.03125 -1.171875 L -3.640625 -1.171875 L -3.640625 -3.59375 C -3.640625 -3.644531 -3.617188 -3.671875 -3.578125 -3.671875 L -2.59375 -3.671875 C -2.550781 -3.671875 -2.53125 -3.644531 -2.53125 -3.59375 L -2.53125 -1.171875 L -1.140625 -1.171875 Z M -1.140625 -2.921875 "/></g></g></g><g fill="#404040" fill-opacity="0.302"><g transform="translate(220.93704, 189.253978)"><g><path d="M -5.09375 -0.515625 C -5.09375 -0.460938 -5.117188 -0.4375 -5.171875 -0.4375 L -6.078125 -0.4375 C -6.128906 -0.4375 -6.15625 -0.460938 -6.15625 -0.515625 L -6.15625 -2.609375 C -6.15625 -2.660156 -6.128906 -2.6875 -6.078125 -2.6875 L -5.09375 -2.6875 Z M -4.046875 -1.515625 L -4.046875 -2.6875 L -1.8125 -2.6875 C -1.507812 -2.6875 -1.253906 -2.640625 -1.046875 -2.546875 C -0.835938 -2.453125 -0.664062 -2.335938 -0.53125 -2.203125 C -0.40625 -2.066406 -0.300781 -1.921875 -0.21875 -1.765625 C -0.144531 -1.609375 -0.09375 -1.457031 -0.0625 -1.3125 C -0.03125 -1.175781 -0.0078125 -1.0625 0 -0.96875 C 0 -0.882812 0 -0.84375 0 -0.84375 L 0 -0.078125 C 0 -0.0234375 -0.0195312 0 -0.0625 0 L -1.0625 0 C -1.113281 0 -1.140625 -0.0234375 -1.140625 -0.078125 L -1.140625 -0.84375 C -1.140625 -1.007812 -1.171875 -1.140625 -1.234375 -1.234375 C -1.304688 -1.328125 -1.382812 -1.390625 -1.46875 -1.421875 C -1.5625 -1.460938 -1.640625 -1.488281 -1.703125 -1.5 C -1.773438 -1.507812 -1.8125 -1.515625 -1.8125 -1.515625 Z M -4.046875 -1.515625 "/></g></g></g><g fill="#404040" fill-opacity="0.302"><g transform="translate(220.93704, 185.591748)"><g><path d="M -1.046875 -2.5 C -1.046875 -2.5625 -1.023438 -2.59375 -0.984375 -2.59375 L -0.0625 -2.59375 C -0.0195312 -2.59375 0 -2.5625 0 -2.5 L 0 -0.078125 C 0 -0.0234375 -0.0195312 0 -0.0625 0 L -0.984375 0 C -1.023438 0 -1.046875 -0.0234375 -1.046875 -0.078125 L -1.046875 -0.71875 L -6.15625 -0.71875 L -6.15625 -1.890625 L -1.046875 -1.890625 Z M -1.046875 -2.5 "/></g></g></g><g fill="#404040" fill-opacity="0.302"><g transform="translate(220.93704, 182.029311)"><g><path d="M -1.484375 -5.5 L -3.4375 -5.5 L -0.296875 -3.9375 C -0.265625 -3.925781 -0.25 -3.898438 -0.25 -3.859375 L -0.25 -2.921875 C -0.25 -2.878906 -0.265625 -2.851562 -0.296875 -2.84375 L -3.515625 -1.171875 L -0.0625 -1.171875 C -0.0195312 -1.171875 0 -1.144531 0 -1.09375 L 0 -0.078125 C 0 -0.0234375 -0.0195312 0 -0.0625 0 L -6.078125 0 C -6.128906 0 -6.15625 -0.0234375 -6.15625 -0.078125 L -6.15625 -1.109375 C -6.15625 -1.148438 -6.140625 -1.175781 -6.109375 -1.1875 L -1.59375 -3.390625 L -6.109375 -5.484375 C -6.140625 -5.503906 -6.15625 -5.535156 -6.15625 -5.578125 L -6.15625 -6.59375 C -6.15625 -6.644531 -6.128906 -6.671875 -6.078125 -6.671875 L -1.484375 -6.671875 Z M -1.484375 -5.5 "/></g></g></g><g fill="#404040" fill-opacity="0.302"><g transform="translate(220.93704, 174.183786)"><g><path d="M -0.09375 -4.828125 C -0.0703125 -4.835938 -0.0507812 -4.832031 -0.03125 -4.8125 C -0.0078125 -4.800781 0 -4.785156 0 -4.765625 L 0 -3.703125 C 0 -3.660156 -0.015625 -3.632812 -0.046875 -3.625 L -3.46875 -2.40625 L -0.046875 -1.21875 C -0.015625 -1.207031 0 -1.179688 0 -1.140625 L 0 -0.078125 C 0 -0.046875 -0.0078125 -0.0234375 -0.03125 -0.015625 C -0.0507812 -0.00390625 -0.0703125 0 -0.09375 0 L -6.109375 -2.34375 C -6.140625 -2.351562 -6.15625 -2.375 -6.15625 -2.40625 C -6.15625 -2.445312 -6.140625 -2.472656 -6.109375 -2.484375 Z M -0.09375 -4.828125 "/></g></g></g><g fill="#404040" fill-opacity="0.502"><g transform="translate(220.597461, 189.593556)"><g><path d="M -5.09375 -0.515625 C -5.09375 -0.460938 -5.117188 -0.4375 -5.171875 -0.4375 L -6.078125 -0.4375 C -6.128906 -0.4375 -6.15625 -0.460938 -6.15625 -0.515625 L -6.15625 -2.609375 C -6.15625 -2.660156 -6.128906 -2.6875 -6.078125 -2.6875 L -5.09375 -2.6875 Z M -4.046875 -1.515625 L -4.046875 -2.6875 L -1.8125 -2.6875 C -1.507812 -2.6875 -1.253906 -2.640625 -1.046875 -2.546875 C -0.835938 -2.453125 -0.664062 -2.335938 -0.53125 -2.203125 C -0.40625 -2.066406 -0.300781 -1.921875 -0.21875 -1.765625 C -0.144531 -1.609375 -0.09375 -1.457031 -0.0625 -1.3125 C -0.03125 -1.175781 -0.0078125 -1.0625 0 -0.96875 C 0 -0.882812 0 -0.84375 0 -0.84375 L 0 -0.078125 C 0 -0.0234375 -0.0195312 0 -0.0625 0 L -1.0625 0 C -1.113281 0 -1.140625 -0.0234375 -1.140625 -0.078125 L -1.140625 -0.84375 C -1.140625 -1.007812 -1.171875 -1.140625 -1.234375 -1.234375 C -1.304688 -1.328125 -1.382812 -1.390625 -1.46875 -1.421875 C -1.5625 -1.460938 -1.640625 -1.488281 -1.703125 -1.5 C -1.773438 -1.507812 -1.8125 -1.515625 -1.8125 -1.515625 Z M -4.046875 -1.515625 "/></g></g></g><g fill="#404040" fill-opacity="0.502"><g transform="translate(220.597461, 185.931327)"><g><path d="M -1.046875 -2.5 C -1.046875 -2.5625 -1.023438 -2.59375 -0.984375 -2.59375 L -0.0625 -2.59375 C -0.0195312 -2.59375 0 -2.5625 0 -2.5 L 0 -0.078125 C 0 -0.0234375 -0.0195312 0 -0.0625 0 L -0.984375 0 C -1.023438 0 -1.046875 -0.0234375 -1.046875 -0.078125 L -1.046875 -0.71875 L -6.15625 -0.71875 L -6.15625 -1.890625 L -1.046875 -1.890625 Z M -1.046875 -2.5 "/></g></g></g><g fill="#404040" fill-opacity="0.502"><g transform="translate(220.597461, 182.36889)"><g><path d="M -1.484375 -5.5 L -3.4375 -5.5 L -0.296875 -3.9375 C -0.265625 -3.925781 -0.25 -3.898438 -0.25 -3.859375 L -0.25 -2.921875 C -0.25 -2.878906 -0.265625 -2.851562 -0.296875 -2.84375 L -3.515625 -1.171875 L -0.0625 -1.171875 C -0.0195312 -1.171875 0 -1.144531 0 -1.09375 L 0 -0.078125 C 0 -0.0234375 -0.0195312 0 -0.0625 0 L -6.078125 0 C -6.128906 0 -6.15625 -0.0234375 -6.15625 -0.078125 L -6.15625 -1.109375 C -6.15625 -1.148438 -6.140625 -1.175781 -6.109375 -1.1875 L -1.59375 -3.390625 L -6.109375 -5.484375 C -6.140625 -5.503906 -6.15625 -5.535156 -6.15625 -5.578125 L -6.15625 -6.59375 C -6.15625 -6.644531 -6.128906 -6.671875 -6.078125 -6.671875 L -1.484375 -6.671875 Z M -1.484375 -5.5 "/></g></g></g><g fill="#404040" fill-opacity="0.502"><g transform="translate(220.597461, 174.523365)"><g><path d="M -0.09375 -4.828125 C -0.0703125 -4.835938 -0.0507812 -4.832031 -0.03125 -4.8125 C -0.0078125 -4.800781 0 -4.785156 0 -4.765625 L 0 -3.703125 C 0 -3.660156 -0.015625 -3.632812 -0.046875 -3.625 L -3.46875 -2.40625 L -0.046875 -1.21875 C -0.015625 -1.207031 0 -1.179688 0 -1.140625 L 0 -0.078125 C 0 -0.046875 -0.0078125 -0.0234375 -0.03125 -0.015625 C -0.0507812 -0.00390625 -0.0703125 0 -0.09375 0 L -6.109375 -2.34375 C -6.140625 -2.351562 -6.15625 -2.375 -6.15625 -2.40625 C -6.15625 -2.445312 -6.140625 -2.472656 -6.109375 -2.484375 Z M -0.09375 -4.828125 "/></g></g></g><g fill="#404040" fill-opacity="1"><g transform="translate(220.25788, 189.933137)"><g><path d="M -5.09375 -0.515625 C -5.09375 -0.460938 -5.117188 -0.4375 -5.171875 -0.4375 L -6.078125 -0.4375 C -6.128906 -0.4375 -6.15625 -0.460938 -6.15625 -0.515625 L -6.15625 -2.609375 C -6.15625 -2.660156 -6.128906 -2.6875 -6.078125 -2.6875 L -5.09375 -2.6875 Z M -4.046875 -1.515625 L -4.046875 -2.6875 L -1.8125 -2.6875 C -1.507812 -2.6875 -1.253906 -2.640625 -1.046875 -2.546875 C -0.835938 -2.453125 -0.664062 -2.335938 -0.53125 -2.203125 C -0.40625 -2.066406 -0.300781 -1.921875 -0.21875 -1.765625 C -0.144531 -1.609375 -0.09375 -1.457031 -0.0625 -1.3125 C -0.03125 -1.175781 -0.0078125 -1.0625 0 -0.96875 C 0 -0.882812 0 -0.84375 0 -0.84375 L 0 -0.078125 C 0 -0.0234375 -0.0195312 0 -0.0625 0 L -1.0625 0 C -1.113281 0 -1.140625 -0.0234375 -1.140625 -0.078125 L -1.140625 -0.84375 C -1.140625 -1.007812 -1.171875 -1.140625 -1.234375 -1.234375 C -1.304688 -1.328125 -1.382812 -1.390625 -1.46875 -1.421875 C -1.5625 -1.460938 -1.640625 -1.488281 -1.703125 -1.5 C -1.773438 -1.507812 -1.8125 -1.515625 -1.8125 -1.515625 Z M -4.046875 -1.515625 "/></g></g></g><g fill="#404040" fill-opacity="1"><g transform="translate(220.25788, 186.270907)"><g><path d="M -1.046875 -2.5 C -1.046875 -2.5625 -1.023438 -2.59375 -0.984375 -2.59375 L -0.0625 -2.59375 C -0.0195312 -2.59375 0 -2.5625 0 -2.5 L 0 -0.078125 C 0 -0.0234375 -0.0195312 0 -0.0625 0 L -0.984375 0 C -1.023438 0 -1.046875 -0.0234375 -1.046875 -0.078125 L -1.046875 -0.71875 L -6.15625 -0.71875 L -6.15625 -1.890625 L -1.046875 -1.890625 Z M -1.046875 -2.5 "/></g></g></g><g fill="#404040" fill-opacity="1"><g transform="translate(220.25788, 182.708471)"><g><path d="M -1.484375 -5.5 L -3.4375 -5.5 L -0.296875 -3.9375 C -0.265625 -3.925781 -0.25 -3.898438 -0.25 -3.859375 L -0.25 -2.921875 C -0.25 -2.878906 -0.265625 -2.851562 -0.296875 -2.84375 L -3.515625 -1.171875 L -0.0625 -1.171875 C -0.0195312 -1.171875 0 -1.144531 0 -1.09375 L 0 -0.078125 C 0 -0.0234375 -0.0195312 0 -0.0625 0 L -6.078125 0 C -6.128906 0 -6.15625 -0.0234375 -6.15625 -0.078125 L -6.15625 -1.109375 C -6.15625 -1.148438 -6.140625 -1.175781 -6.109375 -1.1875 L -1.59375 -3.390625 L -6.109375 -5.484375 C -6.140625 -5.503906 -6.15625 -5.535156 -6.15625 -5.578125 L -6.15625 -6.59375 C -6.15625 -6.644531 -6.128906 -6.671875 -6.078125 -6.671875 L -1.484375 -6.671875 Z M -1.484375 -5.5 "/></g></g></g><g fill="#404040" fill-opacity="1"><g transform="translate(220.25788, 174.862945)"><g><path d="M -0.09375 -4.828125 C -0.0703125 -4.835938 -0.0507812 -4.832031 -0.03125 -4.8125 C -0.0078125 -4.800781 0 -4.785156 0 -4.765625 L 0 -3.703125 C 0 -3.660156 -0.015625 -3.632812 -0.046875 -3.625 L -3.46875 -2.40625 L -0.046875 -1.21875 C -0.015625 -1.207031 0 -1.179688 0 -1.140625 L 0 -0.078125 C 0 -0.046875 -0.0078125 -0.0234375 -0.03125 -0.015625 C -0.0507812 -0.00390625 -0.0703125 0 -0.09375 0 L -6.109375 -2.34375 C -6.140625 -2.351562 -6.15625 -2.375 -6.15625 -2.40625 C -6.15625 -2.445312 -6.140625 -2.472656 -6.109375 -2.484375 Z M -0.09375 -4.828125 "/></g></g></g></svg>